<svg xmlns="http://www.w3.org/2000/svg" version="1.1" xmlns:xlink="http://www.w3.org/1999/xlink" width="800" height="800"><svg xmlns="http://www.w3.org/2000/svg" version="1.1" xmlns:xlink="http://www.w3.org/1999/xlink" width="800" height="800"><svg width="800" height="800" viewBox="0 0 800 800" fill="none" xmlns="http://www.w3.org/2000/svg">
<rect width="800" height="800" fill="#A9113F"></rect>
<path d="M366.123 175.762C258.322 210.283 195.601 335.557 234.801 437.342C250.482 476.49 274.002 499.979 313.202 523.468C352.402 546.957 399.443 546.957 438.643 531.12C478.022 515.638 509.382 476.49 509.382 437.342C501.542 413.853 509.382 390.364 493.702 374.705C478.022 366.875 470.182 335.557 446.661 343.387C462.342 382.535 478.022 413.853 454.502 453.001C423.141 492.327 368.261 492.327 328.882 476.49C305.362 460.831 297.522 437.342 281.842 413.853C266.162 374.705 266.162 335.557 289.682 296.409C305.362 272.92 328.882 249.431 360.242 233.772C383.763 225.942 407.283 210.283 430.803 210.283C556.422 202.453 658.343 327.727 634.823 453.001C626.983 499.979 611.303 539.305 579.943 570.446C556.422 601.942 525.062 625.431 485.862 641.09C454.502 648.742 423.141 664.579 391.781 664.579C352.581 656.749 313.38 656.749 274.18 641.09C250.482 625.431 226.961 609.772 203.441 593.935C164.241 554.786 132.88 515.638 117.2 460.831C101.52 429.69 109.36 398.194 109.36 366.875C101.52 272.92 140.721 186.794 219.121 131.987C328.882 69.3498 454.502 53.6906 564.263 116.328C611.303 147.646 642.663 186.794 681.864 225.942C697.544 249.431 713.224 280.75 721.064 312.068C666.183 178.965 532.902 85.0091 383.763 108.498C313.202 124.157 258.322 155.298 211.281 210.283C187.761 241.602 172.081 272.92 164.241 304.239C156.401 351.216 156.401 398.194 164.241 445.172C179.921 499.979 211.281 546.957 258.322 578.275C289.682 593.935 321.042 609.594 352.402 617.423C375.923 617.423 407.283 617.423 430.803 617.423C477.844 609.594 517.044 586.105 548.404 554.786C603.285 507.809 603.285 429.512 595.445 366.698C579.943 319.898 556.422 288.579 509.382 265.09C478.022 249.431 446.661 241.602 407.461 249.431C383.763 257.261 360.242 265.09 344.562 280.75C328.882 304.239 305.362 327.727 305.362 359.046C305.362 374.705 313.202 398.194 321.042 413.853C344.562 437.342 368.261 460.831 407.461 445.172C368.261 398.194 321.22 327.727 407.461 304.239C478.022 288.579 548.582 343.387 548.582 413.853C548.582 445.172 540.742 476.49 525.062 499.979C501.364 539.305 454.502 554.964 415.123 570.446C375.923 578.275 336.722 570.446 305.362 554.786C274.002 539.127 250.482 515.638 226.961 492.149C203.441 453.001 187.761 413.853 187.761 366.698C187.761 296.231 219.121 233.594 274.002 186.616C305.362 155.298 344.562 147.468 383.763 131.809C446.661 123.979 509.382 131.809 564.263 155.298C697.544 225.942 760.264 398.194 697.544 539.305C666.183 609.772 611.303 664.579 548.582 695.898C454.502 735.046 336.9 735.046 242.641 680.238C140.721 617.601 85.8401 515.638 78 406.024C78 374.705 85.8401 351.216 93.6801 319.898C54.4798 476.49 156.579 641.09 313.202 680.06C352.402 687.89 391.603 695.72 430.981 687.89C478.022 680.06 517.222 664.401 556.422 640.912C603.463 601.764 634.823 554.786 658.343 499.801C674.024 460.653 681.864 421.505 674.024 382.357C666.183 335.557 658.343 288.579 619.143 249.431C572.103 210.283 525.062 171.135 463.054 168.822C431.338 165.085 399.443 167.754 366.123 175.762Z" fill="white"></path>
</svg></svg><style>@media (prefers-color-scheme: light) { :root { filter: none; } }
@media (prefers-color-scheme: dark) { :root { filter: none; } }
</style></svg>